<svg xmlns="http://www.w3.org/2000/svg" version="1.1" xmlns:xlink="http://www.w3.org/1999/xlink" xmlns:svgjs="http://svgjs.dev/svgjs" width="1000" height="1000"><g clip-path="url(#SvgjsClipPath1078)"><rect width="1000" height="1000" fill="#ffffff"></rect><g transform="matrix(0.861244019138756,0,0,0.861244019138756,50,50)"><svg xmlns="http://www.w3.org/2000/svg" version="1.1" xmlns:xlink="http://www.w3.org/1999/xlink" xmlns:svgjs="http://svgjs.dev/svgjs" width="1045" height="1045"><svg width="1045" height="1045" xmlns="http://www.w3.org/2000/svg" xmlns:xlink="http://www.w3.org/1999/xlink" xml:space="preserve" overflow="hidden"><g transform="translate(-646 -646)"><g><path d="M1169.5 780.5 1559.26 1170.26" stroke="#6A607B" stroke-width="36.6667" stroke-linecap="butt" stroke-linejoin="miter" stroke-miterlimit="8" stroke-opacity="1" fill="none" fill-rule="evenodd"></path><path d="M0 0 389.764 389.764" stroke="#6A607B" stroke-width="36.6667" stroke-linecap="butt" stroke-linejoin="miter" stroke-miterlimit="8" stroke-opacity="1" fill="none" fill-rule="evenodd" transform="matrix(-1 0 0 1 1559.26 1169.5)"></path><path d="M780.5 974.5 1170.26 1559.15" stroke="#6A607B" stroke-width="36.6667" stroke-linecap="butt" stroke-linejoin="miter" stroke-miterlimit="8" stroke-opacity="1" fill="none" fill-rule="evenodd"></path><path d="M1169.5 1104.5 1169.5 1559.22" stroke="#6A607B" stroke-width="36.6667" stroke-linecap="butt" stroke-linejoin="miter" stroke-miterlimit="8" stroke-opacity="1" fill="none" fill-rule="evenodd"></path><path d="M0 0 389.764 584.646" stroke="#6A607B" stroke-width="36.6667" stroke-linecap="butt" stroke-linejoin="miter" stroke-miterlimit="8" stroke-opacity="1" fill="none" fill-rule="evenodd" transform="matrix(-1 0 0 1 1170.26 780.5)"></path><path d="M1170.26 1104.42 780.5 974.5" stroke="#6A607B" stroke-width="36.6667" stroke-linecap="butt" stroke-linejoin="miter" stroke-miterlimit="8" stroke-opacity="1" fill="none" fill-rule="evenodd"></path><path d="M0 0 389.764 194.882" stroke="#6A607B" stroke-width="36.6667" stroke-linecap="butt" stroke-linejoin="miter" stroke-miterlimit="8" stroke-opacity="1" fill="none" fill-rule="evenodd" transform="matrix(-1 0 0 1 1170.26 780.5)"></path><path d="M1170.26 1559.38 780.5 1364.5" stroke="#6A607B" stroke-width="36.6667" stroke-linecap="butt" stroke-linejoin="miter" stroke-miterlimit="8" stroke-opacity="1" fill="none" fill-rule="evenodd"></path><path d="M1169.5 1104.5 1559.26 1169.46" stroke="#6A607B" stroke-width="36.6667" stroke-linecap="butt" stroke-linejoin="miter" stroke-miterlimit="8" stroke-opacity="1" fill="none" fill-rule="evenodd"></path><path d="M1039 779.5C1039 707.979 1097.2 650 1169 650 1240.8 650 1299 707.979 1299 779.5 1299 851.021 1240.8 909 1169 909 1097.2 909 1039 851.021 1039 779.5Z" fill="#F89489" fill-rule="evenodd" fill-opacity="1"></path><path d="M1039 1104C1039 1032.2 1097.2 974 1169 974 1240.8 974 1299 1032.2 1299 1104 1299 1175.8 1240.8 1234 1169 1234 1097.2 1234 1039 1175.8 1039 1104Z" fill="#ED6470" fill-rule="evenodd" fill-opacity="1"></path><path d="M1039 1559C1039 1487.2 1097.2 1429 1169 1429 1240.8 1429 1299 1487.2 1299 1559 1299 1630.8 1240.8 1689 1169 1689 1097.2 1689 1039 1630.8 1039 1559Z" fill="#91CBD9" fill-rule="evenodd" fill-opacity="1"></path><path d="M1429 1169C1429 1097.2 1487.2 1039 1559 1039 1630.8 1039 1689 1097.2 1689 1169 1689 1240.8 1630.8 1299 1559 1299 1487.2 1299 1429 1240.8 1429 1169Z" fill="#FFD086" fill-rule="evenodd" fill-opacity="1"></path><path d="M650 974C650 902.203 707.979 844 779.5 844 851.021 844 909 902.203 909 974 909 1045.8 851.021 1104 779.5 1104 707.979 1104 650 1045.8 650 974Z" fill="#91CBD9" fill-rule="evenodd" fill-opacity="1"></path><path d="M650 1364C650 1292.2 707.979 1234 779.5 1234 851.021 1234 909 1292.2 909 1364 909 1435.8 851.021 1494 779.5 1494 707.979 1494 650 1435.8 650 1364Z" fill="#4E9BBA" fill-rule="evenodd" fill-opacity="1"></path></g></g></svg></svg></g></g><defs><clipPath id="SvgjsClipPath1078"><rect width="1000" height="1000" x="0" y="0" rx="350" ry="350"></rect></clipPath></defs></svg>